<svg id="visual" viewBox="0 0 960 540" width="960" height="540" xmlns="http://www.w3.org/2000/svg"
     version="1.1">
    <path d="M0 421L13.3 415.3C26.7 409.7 53.3 398.3 80 391.5C106.7 384.7 133.3 382.3 160 382.2C186.7 382 213.3 384 240 386.5C266.7 389 293.3 392 320 399.5C346.7 407 373.3 419 400 420.2C426.7 421.3 453.3 411.7 480 406.3C506.7 401 533.3 400 560 405C586.7 410 613.3 421 640 420.2C666.7 419.3 693.3 406.7 720 408.7C746.7 410.7 773.3 427.3 800 431.2C826.7 435 853.3 426 880 414.5C906.7 403 933.3 389 946.7 382L960 375L960 541L946.7 541C933.3 541 906.7 541 880 541C853.3 541 826.7 541 800 541C773.3 541 746.7 541 720 541C693.3 541 666.7 541 640 541C613.3 541 586.7 541 560 541C533.3 541 506.7 541 480 541C453.3 541 426.7 541 400 541C373.3 541 346.7 541 320 541C293.3 541 266.7 541 240 541C213.3 541 186.7 541 160 541C133.3 541 106.7 541 80 541C53.3 541 26.7 541 13.3 541L0 541Z"
          fill="#4facf7"></path>
    <path d="M0 448L13.3 447.7C26.7 447.3 53.3 446.7 80 448.3C106.7 450 133.3 454 160 449.8C186.7 445.7 213.3 433.3 240 433.7C266.7 434 293.3 447 320 446.7C346.7 446.3 373.3 432.7 400 428.8C426.7 425 453.3 431 480 432.7C506.7 434.3 533.3 431.7 560 426.7C586.7 421.7 613.3 414.3 640 418C666.7 421.7 693.3 436.3 720 438.3C746.7 440.3 773.3 429.7 800 426.8C826.7 424 853.3 429 880 434.2C906.7 439.3 933.3 444.7 946.7 447.3L960 450L960 541L946.7 541C933.3 541 906.7 541 880 541C853.3 541 826.7 541 800 541C773.3 541 746.7 541 720 541C693.3 541 666.7 541 640 541C613.3 541 586.7 541 560 541C533.3 541 506.7 541 480 541C453.3 541 426.7 541 400 541C373.3 541 346.7 541 320 541C293.3 541 266.7 541 240 541C213.3 541 186.7 541 160 541C133.3 541 106.7 541 80 541C53.3 541 26.7 541 13.3 541L0 541Z"
          fill="#2b9dfc"></path>
    <path d="M0 455L13.3 457.2C26.7 459.3 53.3 463.7 80 463.7C106.7 463.7 133.3 459.3 160 458.3C186.7 457.3 213.3 459.7 240 456.5C266.7 453.3 293.3 444.7 320 443C346.7 441.3 373.3 446.7 400 453.8C426.7 461 453.3 470 480 469.7C506.7 469.3 533.3 459.7 560 453C586.7 446.3 613.3 442.7 640 439.8C666.7 437 693.3 435 720 441.7C746.7 448.3 773.3 463.7 800 468C826.7 472.3 853.3 465.7 880 460.7C906.7 455.7 933.3 452.3 946.7 450.7L960 449L960 541L946.7 541C933.3 541 906.7 541 880 541C853.3 541 826.7 541 800 541C773.3 541 746.7 541 720 541C693.3 541 666.7 541 640 541C613.3 541 586.7 541 560 541C533.3 541 506.7 541 480 541C453.3 541 426.7 541 400 541C373.3 541 346.7 541 320 541C293.3 541 266.7 541 240 541C213.3 541 186.7 541 160 541C133.3 541 106.7 541 80 541C53.3 541 26.7 541 13.3 541L0 541Z"
          fill="#008cff"></path>
    <path d="M0 484L13.3 483C26.7 482 53.3 480 80 477.3C106.7 474.7 133.3 471.3 160 472.8C186.7 474.3 213.3 480.7 240 485.2C266.7 489.7 293.3 492.3 320 488.3C346.7 484.3 373.3 473.7 400 469.8C426.7 466 453.3 469 480 473.2C506.7 477.3 533.3 482.7 560 485.8C586.7 489 613.3 490 640 489C666.7 488 693.3 485 720 485.8C746.7 486.7 773.3 491.3 800 489.8C826.7 488.3 853.3 480.7 880 476.7C906.7 472.7 933.3 472.3 946.7 472.2L960 472L960 541L946.7 541C933.3 541 906.7 541 880 541C853.3 541 826.7 541 800 541C773.3 541 746.7 541 720 541C693.3 541 666.7 541 640 541C613.3 541 586.7 541 560 541C533.3 541 506.7 541 480 541C453.3 541 426.7 541 400 541C373.3 541 346.7 541 320 541C293.3 541 266.7 541 240 541C213.3 541 186.7 541 160 541C133.3 541 106.7 541 80 541C53.3 541 26.7 541 13.3 541L0 541Z"
          fill="#007aff"></path>
    <path d="M0 494L13.3 495.3C26.7 496.7 53.3 499.3 80 502.8C106.7 506.3 133.3 510.7 160 510.5C186.7 510.3 213.3 505.7 240 502.5C266.7 499.3 293.3 497.7 320 495.7C346.7 493.7 373.3 491.3 400 490.3C426.7 489.3 453.3 489.7 480 491.2C506.7 492.7 533.3 495.3 560 499C586.7 502.7 613.3 507.3 640 509.7C666.7 512 693.3 512 720 510.8C746.7 509.7 773.3 507.3 800 507.5C826.7 507.7 853.3 510.3 880 511.5C906.7 512.7 933.3 512.3 946.7 512.2L960 512L960 541L946.7 541C933.3 541 906.7 541 880 541C853.3 541 826.7 541 800 541C773.3 541 746.7 541 720 541C693.3 541 666.7 541 640 541C613.3 541 586.7 541 560 541C533.3 541 506.7 541 480 541C453.3 541 426.7 541 400 541C373.3 541 346.7 541 320 541C293.3 541 266.7 541 240 541C213.3 541 186.7 541 160 541C133.3 541 106.7 541 80 541C53.3 541 26.7 541 13.3 541L0 541Z"
          fill="#0066ff"></path>
</svg>