<svg id="visual" viewBox="0 0 900 600" width="900" height="600" xmlns="http://www.w3.org/2000/svg"
     version="1.1">
    <path d="M0 467L15 462.2C30 457.3 60 447.7 90 439.3C120 431 150 424 180 423.8C210 423.7 240 430.3 270 438.2C300 446 330 455 360 454.7C390 454.3 420 444.7 450 442C480 439.3 510 443.7 540 438.8C570 434 600 420 630 419.3C660 418.7 690 431.3 720 442.8C750 454.3 780 464.7 810 458.7C840 452.7 870 430.3 885 419.2L900 408L900 601L885 601C870 601 840 601 810 601C780 601 750 601 720 601C690 601 660 601 630 601C600 601 570 601 540 601C510 601 480 601 450 601C420 601 390 601 360 601C330 601 300 601 270 601C240 601 210 601 180 601C150 601 120 601 90 601C60 601 30 601 15 601L0 601Z"
          fill="#0066ff"></path>
    <path d="M0 488L15 483.3C30 478.7 60 469.3 90 470.2C120 471 150 482 180 482.8C210 483.7 240 474.3 270 467.7C300 461 330 457 360 459.2C390 461.3 420 469.7 450 466.7C480 463.7 510 449.3 540 445.8C570 442.3 600 449.7 630 459.5C660 469.3 690 481.7 720 478.8C750 476 780 458 810 455.5C840 453 870 466 885 472.5L900 479L900 601L885 601C870 601 840 601 810 601C780 601 750 601 720 601C690 601 660 601 630 601C600 601 570 601 540 601C510 601 480 601 450 601C420 601 390 601 360 601C330 601 300 601 270 601C240 601 210 601 180 601C150 601 120 601 90 601C60 601 30 601 15 601L0 601Z"
          fill="#1c5bdb"></path>
    <path d="M0 501L15 494.3C30 487.7 60 474.3 90 473C120 471.7 150 482.3 180 490.3C210 498.3 240 503.7 270 501.3C300 499 330 489 360 484C390 479 420 479 450 479.7C480 480.3 510 481.7 540 480.8C570 480 600 477 630 473.7C660 470.3 690 466.7 720 469.2C750 471.7 780 480.3 810 488.8C840 497.3 870 505.7 885 509.8L900 514L900 601L885 601C870 601 840 601 810 601C780 601 750 601 720 601C690 601 660 601 630 601C600 601 570 601 540 601C510 601 480 601 450 601C420 601 390 601 360 601C330 601 300 601 270 601C240 601 210 601 180 601C150 601 120 601 90 601C60 601 30 601 15 601L0 601Z"
          fill="#2650b8"></path>
    <path d="M0 521L15 515.5C30 510 60 499 90 499.2C120 499.3 150 510.7 180 518.5C210 526.3 240 530.7 270 533.2C300 535.7 330 536.3 360 532.3C390 528.3 420 519.7 450 512.5C480 505.3 510 499.7 540 503.5C570 507.3 600 520.7 630 520.5C660 520.3 690 506.7 720 500C750 493.3 780 493.7 810 494.8C840 496 870 498 885 499L900 500L900 601L885 601C870 601 840 601 810 601C780 601 750 601 720 601C690 601 660 601 630 601C600 601 570 601 540 601C510 601 480 601 450 601C420 601 390 601 360 601C330 601 300 601 270 601C240 601 210 601 180 601C150 601 120 601 90 601C60 601 30 601 15 601L0 601Z"
          fill="#2a4496"></path>
    <path d="M0 549L15 548.3C30 547.7 60 546.3 90 541.3C120 536.3 150 527.7 180 529.2C210 530.7 240 542.3 270 545C300 547.7 330 541.3 360 537.7C390 534 420 533 450 532.5C480 532 510 532 540 531.3C570 530.7 600 529.3 630 532.2C660 535 690 542 720 543C750 544 780 539 810 536.7C840 534.3 870 534.7 885 534.8L900 535L900 601L885 601C870 601 840 601 810 601C780 601 750 601 720 601C690 601 660 601 630 601C600 601 570 601 540 601C510 601 480 601 450 601C420 601 390 601 360 601C330 601 300 601 270 601C240 601 210 601 180 601C150 601 120 601 90 601C60 601 30 601 15 601L0 601Z"
          fill="#2b3a75"></path>
    <path d="M0 557L15 559.2C30 561.3 60 565.7 90 568.2C120 570.7 150 571.3 180 569.2C210 567 240 562 270 562.7C300 563.3 330 569.7 360 568.3C390 567 420 558 450 555.5C480 553 510 557 540 560.8C570 564.7 600 568.3 630 569.8C660 571.3 690 570.7 720 570.7C750 570.7 780 571.3 810 570.5C840 569.7 870 567.3 885 566.2L900 565L900 601L885 601C870 601 840 601 810 601C780 601 750 601 720 601C690 601 660 601 630 601C600 601 570 601 540 601C510 601 480 601 450 601C420 601 390 601 360 601C330 601 300 601 270 601C240 601 210 601 180 601C150 601 120 601 90 601C60 601 30 601 15 601L0 601Z"
          fill="#282f56"></path>
</svg>