<svg id="visual" viewBox="0 0 900 600" width="900" height="600" xmlns="http://www.w3.org/2000/svg"
     version="1.1">
    <path d="M0 495L15 494.3C30 493.7 60 492.3 90 489.2C120 486 150 481 180 483.7C210 486.3 240 496.7 270 501.7C300 506.7 330 506.3 360 503.8C390 501.3 420 496.7 450 492.8C480 489 510 486 540 484.7C570 483.3 600 483.7 630 485.3C660 487 690 490 720 491.5C750 493 780 493 810 487.3C840 481.7 870 470.3 885 464.7L900 459L900 601L885 601C870 601 840 601 810 601C780 601 750 601 720 601C690 601 660 601 630 601C600 601 570 601 540 601C510 601 480 601 450 601C420 601 390 601 360 601C330 601 300 601 270 601C240 601 210 601 180 601C150 601 120 601 90 601C60 601 30 601 15 601L0 601Z"
          fill="#0066ff"></path>
    <path d="M0 478L15 479.8C30 481.7 60 485.3 90 486.7C120 488 150 487 180 492.7C210 498.3 240 510.7 270 511.7C300 512.7 330 502.3 360 503C390 503.7 420 515.3 450 520C480 524.7 510 522.3 540 521.3C570 520.3 600 520.7 630 517.5C660 514.3 690 507.7 720 501C750 494.3 780 487.7 810 487.5C840 487.3 870 493.7 885 496.8L900 500L900 601L885 601C870 601 840 601 810 601C780 601 750 601 720 601C690 601 660 601 630 601C600 601 570 601 540 601C510 601 480 601 450 601C420 601 390 601 360 601C330 601 300 601 270 601C240 601 210 601 180 601C150 601 120 601 90 601C60 601 30 601 15 601L0 601Z"
          fill="#2058d2"></path>
    <path d="M0 509L15 511.2C30 513.3 60 517.7 90 523.8C120 530 150 538 180 536.3C210 534.7 240 523.3 270 520.7C300 518 330 524 360 523C390 522 420 514 450 510C480 506 510 506 540 507.7C570 509.3 600 512.7 630 518.3C660 524 690 532 720 530.3C750 528.7 780 517.3 810 511.5C840 505.7 870 505.3 885 505.2L900 505L900 601L885 601C870 601 840 601 810 601C780 601 750 601 720 601C690 601 660 601 630 601C600 601 570 601 540 601C510 601 480 601 450 601C420 601 390 601 360 601C330 601 300 601 270 601C240 601 210 601 180 601C150 601 120 601 90 601C60 601 30 601 15 601L0 601Z"
          fill="#294aa7"></path>
    <path d="M0 558L15 557C30 556 60 554 90 550.3C120 546.7 150 541.3 180 539.8C210 538.3 240 540.7 270 545C300 549.3 330 555.7 360 556C390 556.3 420 550.7 450 547.5C480 544.3 510 543.7 540 541C570 538.3 600 533.7 630 534.7C660 535.7 690 542.3 720 545.8C750 549.3 780 549.7 810 551.7C840 553.7 870 557.3 885 559.2L900 561L900 601L885 601C870 601 840 601 810 601C780 601 750 601 720 601C690 601 660 601 630 601C600 601 570 601 540 601C510 601 480 601 450 601C420 601 390 601 360 601C330 601 300 601 270 601C240 601 210 601 180 601C150 601 120 601 90 601C60 601 30 601 15 601L0 601Z"
          fill="#2b3c7d"></path>
    <path d="M0 575L15 574.5C30 574 60 573 90 570.2C120 567.3 150 562.7 180 561.3C210 560 240 562 270 562.8C300 563.7 330 563.3 360 564.3C390 565.3 420 567.7 450 569.7C480 571.7 510 573.3 540 572.3C570 571.3 600 567.7 630 569C660 570.3 690 576.7 720 579.5C750 582.3 780 581.7 810 578.5C840 575.3 870 569.7 885 566.8L900 564L900 601L885 601C870 601 840 601 810 601C780 601 750 601 720 601C690 601 660 601 630 601C600 601 570 601 540 601C510 601 480 601 450 601C420 601 390 601 360 601C330 601 300 601 270 601C240 601 210 601 180 601C150 601 120 601 90 601C60 601 30 601 15 601L0 601Z"
          fill="#282f56"></path>
</svg>