<svg id="visual" viewBox="0 0 3000 200" width="3000" height="200" xmlns="http://www.w3.org/2000/svg"
     version="1.1">
    <path d="M0 98L31.3 88.2C62.7 78.3 125.3 58.7 187.8 58C250.3 57.3 312.7 75.7 375.2 81.2C437.7 86.7 500.3 79.3 562.8 74.8C625.3 70.3 687.7 68.7 750.2 72.3C812.7 76 875.3 85 937.8 83.3C1000.3 81.7 1062.7 69.3 1125.2 67.8C1187.7 66.3 1250.3 75.7 1312.8 74.3C1375.3 73 1437.7 61 1500.2 60.5C1562.7 60 1625.3 71 1687.8 72.7C1750.3 74.3 1812.7 66.7 1875.2 66.3C1937.7 66 2000.3 73 2062.8 74.2C2125.3 75.3 2187.7 70.7 2250.2 66.5C2312.7 62.3 2375.3 58.7 2437.8 60.2C2500.3 61.7 2562.7 68.3 2625.2 66.5C2687.7 64.7 2750.3 54.3 2812.8 55C2875.3 55.7 2937.7 67.3 2968.8 73.2L3000 79L3000 201L2968.8 201C2937.7 201 2875.3 201 2812.8 201C2750.3 201 2687.7 201 2625.2 201C2562.7 201 2500.3 201 2437.8 201C2375.3 201 2312.7 201 2250.2 201C2187.7 201 2125.3 201 2062.8 201C2000.3 201 1937.7 201 1875.2 201C1812.7 201 1750.3 201 1687.8 201C1625.3 201 1562.7 201 1500.2 201C1437.7 201 1375.3 201 1312.8 201C1250.3 201 1187.7 201 1125.2 201C1062.7 201 1000.3 201 937.8 201C875.3 201 812.7 201 750.2 201C687.7 201 625.3 201 562.8 201C500.3 201 437.7 201 375.2 201C312.7 201 250.3 201 187.8 201C125.3 201 62.7 201 31.3 201L0 201Z"
          fill="#0066ff"></path>
    <path d="M0 87L31.3 83.2C62.7 79.3 125.3 71.7 187.8 72.5C250.3 73.3 312.7 82.7 375.2 89.8C437.7 97 500.3 102 562.8 102.7C625.3 103.3 687.7 99.7 750.2 98.5C812.7 97.3 875.3 98.7 937.8 100.2C1000.3 101.7 1062.7 103.3 1125.2 101.7C1187.7 100 1250.3 95 1312.8 93.7C1375.3 92.3 1437.7 94.7 1500.2 93.2C1562.7 91.7 1625.3 86.3 1687.8 83.8C1750.3 81.3 1812.7 81.7 1875.2 82.5C1937.7 83.3 2000.3 84.7 2062.8 81.8C2125.3 79 2187.7 72 2250.2 70C2312.7 68 2375.3 71 2437.8 77.7C2500.3 84.3 2562.7 94.7 2625.2 97.2C2687.7 99.7 2750.3 94.3 2812.8 90.3C2875.3 86.3 2937.7 83.7 2968.8 82.3L3000 81L3000 201L2968.8 201C2937.7 201 2875.3 201 2812.8 201C2750.3 201 2687.7 201 2625.2 201C2562.7 201 2500.3 201 2437.8 201C2375.3 201 2312.7 201 2250.2 201C2187.7 201 2125.3 201 2062.8 201C2000.3 201 1937.7 201 1875.2 201C1812.7 201 1750.3 201 1687.8 201C1625.3 201 1562.7 201 1500.2 201C1437.7 201 1375.3 201 1312.8 201C1250.3 201 1187.7 201 1125.2 201C1062.7 201 1000.3 201 937.8 201C875.3 201 812.7 201 750.2 201C687.7 201 625.3 201 562.8 201C500.3 201 437.7 201 375.2 201C312.7 201 250.3 201 187.8 201C125.3 201 62.7 201 31.3 201L0 201Z"
          fill="#2058d2"></path>
    <path d="M0 119L31.3 117.8C62.7 116.7 125.3 114.3 187.8 114.2C250.3 114 312.7 116 375.2 118.5C437.7 121 500.3 124 562.8 126.8C625.3 129.7 687.7 132.3 750.2 128.5C812.7 124.7 875.3 114.3 937.8 107C1000.3 99.7 1062.7 95.3 1125.2 96.2C1187.7 97 1250.3 103 1312.8 110.2C1375.3 117.3 1437.7 125.7 1500.2 127.7C1562.7 129.7 1625.3 125.3 1687.8 118.8C1750.3 112.3 1812.7 103.7 1875.2 103.2C1937.7 102.7 2000.3 110.3 2062.8 117.8C2125.3 125.3 2187.7 132.7 2250.2 131.5C2312.7 130.3 2375.3 120.7 2437.8 117.7C2500.3 114.7 2562.7 118.3 2625.2 121.7C2687.7 125 2750.3 128 2812.8 123.8C2875.3 119.7 2937.7 108.3 2968.8 102.7L3000 97L3000 201L2968.8 201C2937.7 201 2875.3 201 2812.8 201C2750.3 201 2687.7 201 2625.2 201C2562.7 201 2500.3 201 2437.8 201C2375.3 201 2312.7 201 2250.2 201C2187.7 201 2125.3 201 2062.8 201C2000.3 201 1937.7 201 1875.2 201C1812.7 201 1750.3 201 1687.8 201C1625.3 201 1562.7 201 1500.2 201C1437.7 201 1375.3 201 1312.8 201C1250.3 201 1187.7 201 1125.2 201C1062.7 201 1000.3 201 937.8 201C875.3 201 812.7 201 750.2 201C687.7 201 625.3 201 562.8 201C500.3 201 437.7 201 375.2 201C312.7 201 250.3 201 187.8 201C125.3 201 62.7 201 31.3 201L0 201Z"
          fill="#294aa7"></path>
    <path d="M0 145L31.3 141.5C62.7 138 125.3 131 187.8 129.8C250.3 128.7 312.7 133.3 375.2 136.5C437.7 139.7 500.3 141.3 562.8 138.7C625.3 136 687.7 129 750.2 128.2C812.7 127.3 875.3 132.7 937.8 139C1000.3 145.3 1062.7 152.7 1125.2 152.3C1187.7 152 1250.3 144 1312.8 141.5C1375.3 139 1437.7 142 1500.2 142.3C1562.7 142.7 1625.3 140.3 1687.8 139.7C1750.3 139 1812.7 140 1875.2 140.5C1937.7 141 2000.3 141 2062.8 142.5C2125.3 144 2187.7 147 2250.2 147.8C2312.7 148.7 2375.3 147.3 2437.8 142.5C2500.3 137.7 2562.7 129.3 2625.2 126.7C2687.7 124 2750.3 127 2812.8 133.5C2875.3 140 2937.7 150 2968.8 155L3000 160L3000 201L2968.8 201C2937.7 201 2875.3 201 2812.8 201C2750.3 201 2687.7 201 2625.2 201C2562.7 201 2500.3 201 2437.8 201C2375.3 201 2312.7 201 2250.2 201C2187.7 201 2125.3 201 2062.8 201C2000.3 201 1937.7 201 1875.2 201C1812.7 201 1750.3 201 1687.8 201C1625.3 201 1562.7 201 1500.2 201C1437.7 201 1375.3 201 1312.8 201C1250.3 201 1187.7 201 1125.2 201C1062.7 201 1000.3 201 937.8 201C875.3 201 812.7 201 750.2 201C687.7 201 625.3 201 562.8 201C500.3 201 437.7 201 375.2 201C312.7 201 250.3 201 187.8 201C125.3 201 62.7 201 31.3 201L0 201Z"
          fill="#2b3c7d"></path>
    <path d="M0 158L31.3 161.5C62.7 165 125.3 172 187.8 170.8C250.3 169.7 312.7 160.3 375.2 160C437.7 159.7 500.3 168.3 562.8 172.5C625.3 176.7 687.7 176.3 750.2 175.2C812.7 174 875.3 172 937.8 168.2C1000.3 164.3 1062.7 158.7 1125.2 157.3C1187.7 156 1250.3 159 1312.8 159.3C1375.3 159.7 1437.7 157.3 1500.2 159.2C1562.7 161 1625.3 167 1687.8 170C1750.3 173 1812.7 173 1875.2 174.2C1937.7 175.3 2000.3 177.7 2062.8 179C2125.3 180.3 2187.7 180.7 2250.2 179.3C2312.7 178 2375.3 175 2437.8 172.8C2500.3 170.7 2562.7 169.3 2625.2 166.2C2687.7 163 2750.3 158 2812.8 158.7C2875.3 159.3 2937.7 165.7 2968.8 168.8L3000 172L3000 201L2968.8 201C2937.7 201 2875.3 201 2812.8 201C2750.3 201 2687.7 201 2625.2 201C2562.7 201 2500.3 201 2437.8 201C2375.3 201 2312.7 201 2250.2 201C2187.7 201 2125.3 201 2062.8 201C2000.3 201 1937.7 201 1875.2 201C1812.7 201 1750.3 201 1687.8 201C1625.3 201 1562.7 201 1500.2 201C1437.7 201 1375.3 201 1312.8 201C1250.3 201 1187.7 201 1125.2 201C1062.7 201 1000.3 201 937.8 201C875.3 201 812.7 201 750.2 201C687.7 201 625.3 201 562.8 201C500.3 201 437.7 201 375.2 201C312.7 201 250.3 201 187.8 201C125.3 201 62.7 201 31.3 201L0 201Z"
          fill="#282f56"></path>
</svg>